<mxfile host="app.diagrams.net" modified="2024-02-26T17:08:29.061Z" agent="Mozilla/5.0 (Windows NT 10.0; Win64; x64) AppleWebKit/537.36 (KHTML, like Gecko) Chrome/108.0.0.0 Safari/537.36" version="23.1.6" etag="qYRckp37o3GQ8HwKDK4U" type="github">
  <diagram name="PÃ¡gina-1" id="YyziZPgX9s33Yto3hrfM">
    <mxGraphModel>
      <root>
        <mxCell id="0" />
        <mxCell id="1" parent="0" />
      </root>
    </mxGraphModel>
  </diagram>
</mxfile>
